<svg xmlns="http://www.w3.org/2000/svg" viewBox="298 258 162 184">
  <g fill="#228ea1">
    <path d="M307.03 434.84 c0 -0.23 3.67 -6.64 8.13 -14.30 l8.13 -13.91 11.88 -0.23 c6.56 -0.08 11.72 0.08 11.56 0.47 -0.08 0.39 -3.91 6.88 -8.44 14.45 l-8.20 13.75 -11.48 0.08 c-6.41 0 -11.56 -0.16 -11.56 -0.31z"/>
    <path d="M447.81 431.64 c-1.17 -1.95 -14.38 -23.98 -29.45 -49.06 -15 -25 -27.89 -45.55 -28.52 -45.63 -0.78 -0.16 -3.75 4.22 -8.91 13.05 l-7.73 13.28 -11.64 0 c-6.41 0 -11.56 -0.31 -11.41 -0.70 0.16 -0.31 8.83 -15.08 19.38 -32.73 12.03 -20.23 19.53 -32.03 20.23 -31.95 1.02 0.16 82.89 135.23 82.89 136.72 0 0.31 -5.08 0.55 -11.33 0.55 l-11.33 0 -2.19 -3.52z"/>
    <path d="M316.17 392.81 c-0.63 -1.02 -3.13 -5.63 -5.47 -10.31 l-4.45 -8.52 25.47 -42.27 c14.06 -23.20 32.50 -53.98 41.09 -68.28 13.13 -21.80 15.86 -26.02 17.19 -25.78 1.25 0.16 11.48 16.56 40.63 65.23 l39.06 65 -6.17 8.59 c-3.36 4.77 -6.33 8.67 -6.64 8.67 -0.31 0 -1.17 -1.09 -1.88 -2.42 -0.63 -1.33 -14.22 -24.14 -30.16 -50.63 -15.94 -26.48 -30.08 -50 -31.41 -52.19 -1.33 -2.27 -2.97 -4.14 -3.59 -4.14 -0.70 0 -5.63 7.50 -12.19 18.59 -6.09 10.16 -19.22 32.03 -29.14 48.59 -9.92 16.48 -18.05 30.31 -18.05 30.63 0 0.39 15.63 0.63 34.69 0.63 l34.77 0 5.86 9.61 c3.28 5.31 5.94 9.92 5.94 10.16 0 0.31 -21.25 0.55 -47.27 0.55 l-47.27 0 -1.02 -1.72z"/>
  </g>
</svg>
