<svg xmlns="http://www.w3.org/2000/svg" xmlns:xlink="http://www.w3.org/1999/xlink" width="1152" zoomAndPan="magnify" viewBox="0 0 864 287.999989" height="384" preserveAspectRatio="xMidYMid meet" version="1.0"><path fill="#062d46" d="M 729.195312 247.113281 L 729.195312 229.851562 L 736.84375 230.261719 C 745.109375 230.671875 748.207031 232.128906 752.347656 237.710938 C 754 239.878906 754.515625 242.046875 754.515625 247.113281 C 754.515625 252.179688 754 254.351562 752.347656 256.519531 C 748.207031 262.101562 745.109375 263.542969 736.84375 263.96875 L 729.195312 264.378906 Z M 742.121094 256.929688 C 745.535156 255.582031 748.21875 249.484375 747.386719 244.734375 C 746.550781 239.5625 744.078125 237.285156 739.328125 237.285156 L 735.402344 237.285156 L 735.402344 246.902344 C 735.402344 252.273438 735.703125 256.929688 736.128906 257.234375 C 737.054688 258.265625 738.917969 258.160156 742.121094 256.929688 Z M 742.121094 256.929688 " fill-opacity="1" fill-rule="nonzero"/><path fill="#062d46" d="M 759.160156 247.113281 L 759.160156 230.0625 L 777.757812 230.0625 L 777.757812 237.285156 L 765.347656 237.285156 L 765.347656 240.382812 C 765.347656 243.476562 765.457031 243.476562 771.039062 243.476562 C 776.621094 243.476562 776.726562 243.476562 776.726562 246.480469 C 776.726562 249.484375 776.515625 249.574219 771.355469 249.894531 L 765.878906 250.195312 L 765.574219 254.125 L 765.269531 257.949219 L 778.816406 257.949219 L 778.816406 264.140625 L 759.183594 264.140625 L 759.183594 247.089844 Z M 759.160156 247.113281 " fill-opacity="1" fill-rule="nonzero"/><path fill="#062d46" d="M 782.929688 247.113281 L 782.929688 230.0625 L 790.152344 230.0625 L 790.152344 257.976562 L 795.839844 257.976562 C 801.421875 257.976562 801.527344 257.976562 801.527344 261.070312 L 801.527344 264.164062 L 782.929688 264.164062 Z M 782.929688 247.113281 " fill-opacity="1" fill-rule="nonzero"/><path fill="#062d46" d="M 806.699219 256.519531 C 806.699219 252.378906 806.394531 246.082031 806.078125 242.5625 L 805.351562 236.253906 L 801.316406 236.253906 C 797.492188 236.253906 797.28125 236.042969 797.597656 233.464844 L 797.902344 230.566406 L 810.101562 230.261719 L 822.191406 229.957031 L 822.191406 233.054688 C 822.191406 235.949219 821.886719 236.148438 817.851562 236.464844 L 813.40625 236.769531 L 813.101562 250.515625 L 812.796875 264.152344 L 806.699219 264.152344 L 806.699219 256.507812 Z M 806.699219 256.519531 " fill-opacity="1" fill-rule="nonzero"/><path fill="#062d46" d="M 821.277344 262.921875 C 821.277344 262.195312 823.765625 254.65625 826.753906 246.082031 C 832.125 230.792969 832.335938 230.578125 835.539062 230.273438 C 839.253906 229.867188 838.328125 228.316406 845.976562 250.011719 L 850.933594 264.164062 L 847.113281 264.164062 C 843.59375 264.164062 843.078125 263.863281 842.257812 260.859375 C 841.332031 257.550781 841.121094 257.445312 835.644531 257.445312 C 830.167969 257.445312 829.957031 257.550781 829.03125 260.859375 C 828.195312 263.753906 827.679688 264.164062 824.691406 264.164062 C 822.519531 264.164062 821.171875 263.648438 821.277344 262.921875 Z M 838.738281 250.316406 C 838.738281 248.769531 836.253906 243.492188 835.539062 243.492188 C 834.613281 243.492188 832.535156 247.828125 832.535156 249.800781 C 832.535156 250.316406 833.976562 250.726562 835.628906 250.726562 C 837.390625 250.726562 838.726562 250.515625 838.726562 250.316406 Z M 838.738281 250.316406 " fill-opacity="1" fill-rule="nonzero"/><path fill="#062d46" d="M 766.910156 222.101562 C 752.132812 220.855469 728.574219 215.378906 723.507812 212.074219 L 720.929688 210.421875 L 720.929688 176.316406 L 723.308594 176.316406 C 724.660156 176.316406 728.679688 177.5625 732.410156 179.003906 C 741.195312 182.613281 758.457031 186.34375 770.230469 187.164062 C 782.214844 188 789.859375 186.132812 795.03125 180.960938 C 799.066406 176.925781 799.582031 171.554688 796.476562 166.382812 C 793.378906 161.316406 788.722656 158.421875 772.398438 151.199219 C 751.011719 141.792969 744.183594 137.757812 735.8125 129.398438 C 725.679688 119.265625 723.613281 113.894531 723.507812 97.769531 C 723.507812 86.40625 723.613281 85.574219 726.921875 78.957031 C 730.640625 71.3125 741.699219 60.042969 746.550781 58.90625 C 748.101562 58.496094 750.480469 57.355469 751.816406 56.21875 C 753.167969 55.1875 755.019531 54.355469 756.050781 54.355469 C 756.976562 54.355469 759.144531 53.734375 760.800781 52.914062 C 768.960938 48.773438 795.933594 47.953125 811.332031 51.152344 C 816.503906 52.289062 823.9375 54.25 827.867188 55.703125 L 835.101562 58.191406 L 835.40625 76.378906 C 835.617188 88.789062 835.300781 94.675781 834.570312 94.675781 C 833.949219 94.675781 831.675781 93.746094 829.398438 92.609375 C 827.230469 91.472656 821.34375 89.304688 816.277344 87.863281 C 804.492188 84.25 786.304688 83.722656 778.550781 86.722656 C 771.832031 89.304688 768.417969 93.550781 768.417969 99.332031 C 768.417969 107.1875 772.652344 110.691406 792.597656 118.867188 C 828.765625 133.855469 839.824219 143.050781 843.753906 161.648438 C 845.921875 172.296875 844.585938 186.34375 840.550781 194.414062 C 834.863281 205.683594 825.972656 212.707031 811.304688 217.5625 C 797.347656 222.113281 783.605469 223.554688 766.871094 222.113281 Z M 766.910156 222.101562 " fill-opacity="1" fill-rule="nonzero"/><path fill="#062d46" d="M 11.980469 136.011719 L 11.980469 53.230469 L 58.28125 53.535156 L 104.472656 53.839844 L 112.117188 56.628906 C 136.40625 65.519531 148.707031 83.601562 148.707031 110.679688 C 148.8125 135.179688 138.679688 152.429688 118.945312 161.832031 C 106.535156 167.71875 102.710938 168.339844 77.089844 168.964844 L 53.835938 169.585938 L 53.53125 194.175781 L 53.320312 218.675781 L 11.96875 218.675781 L 11.96875 136 Z M 90.316406 132.402344 C 101.269531 129.09375 106.640625 120.933594 105.820312 108.945312 C 104.683594 92 95.277344 86.933594 66.242188 87.664062 L 53.835938 87.96875 L 53.730469 108.535156 C 53.730469 119.898438 53.835938 130.246094 54.140625 131.582031 C 54.550781 133.960938 54.65625 133.960938 69.75 133.960938 C 80.503906 133.960938 86.585938 133.445312 90.316406 132.414062 Z M 90.316406 132.402344 " fill-opacity="1" fill-rule="nonzero"/><path fill="#062d46" d="M 163.894531 136.011719 L 163.894531 53.335938 L 208.644531 53.335938 C 258.355469 53.335938 259.492188 53.441406 273.433594 60.253906 C 291.929688 69.25 300.726562 85.058594 300.726562 109.132812 C 300.726562 122.464844 299.175781 129.382812 293.804688 139.410156 C 290.394531 146.027344 280.789062 155.535156 274.375 158.738281 L 270.339844 160.800781 L 277.679688 175.578125 C 281.714844 183.632812 285.222656 190.457031 285.433594 190.671875 C 285.644531 190.976562 286.464844 190.367188 287.191406 189.320312 C 288.4375 187.667969 289.363281 189.015625 295.765625 201.199219 C 299.691406 208.847656 303 215.871094 303.210938 216.914062 C 303.515625 218.570312 301.863281 218.675781 279.957031 218.675781 L 256.398438 218.570312 L 248.75 203.382812 C 244.609375 195.007812 238.617188 183.433594 235.523438 177.652344 L 229.941406 167.003906 L 206.277344 167.003906 L 206.277344 218.675781 L 163.894531 218.675781 L 163.894531 136 Z M 242.746094 130.429688 C 253.183594 127.335938 257.839844 120.8125 257.933594 109.34375 C 257.933594 99.011719 254.625 93.535156 246.054688 89.910156 C 242.957031 88.5625 237.574219 88.046875 224.148438 87.636719 L 206.261719 87.121094 L 206.261719 131.871094 L 222.070312 131.871094 C 232.613281 131.871094 239.53125 131.355469 242.746094 130.429688 Z M 242.746094 130.429688 " fill-opacity="1" fill-rule="nonzero"/><path fill="#062d46" d="M 481.0625 212.800781 C 483.75 208.976562 484.886719 206.492188 484.265625 205.882812 C 482.398438 204.015625 483.234375 202.269531 491.394531 190.789062 C 498.417969 180.972656 499.769531 179.625 500.695312 181.171875 C 501.621094 182.933594 501.832031 182.933594 503.695312 180.960938 C 509.277344 175.074219 536.144531 136.726562 535.734375 135.179688 C 535.324219 133.628906 489.332031 68.734375 482.09375 59.421875 C 479.925781 56.628906 479.515625 55.386719 480.335938 54.566406 C 481.167969 53.734375 488.195312 53.324219 503.378906 53.324219 L 525.285156 53.324219 L 542.652344 77.609375 C 552.269531 91.050781 560.433594 101.789062 560.84375 101.683594 C 561.253906 101.472656 569.414062 90.730469 579.03125 77.609375 L 596.398438 53.839844 L 619.960938 53.535156 C 632.882812 53.429688 643.414062 53.535156 643.414062 53.839844 C 643.414062 54.144531 635.449219 65.414062 625.632812 78.945312 C 615.925781 92.386719 602.589844 110.773438 596.175781 119.765625 L 584.386719 136 L 588.9375 141.992188 C 593.6875 148.195312 605.988281 165.140625 628.925781 196.96875 C 636.46875 207.507812 643.1875 216.703125 643.703125 217.429688 C 644.429688 218.355469 639.773438 218.675781 620.859375 218.675781 L 596.980469 218.675781 L 585.921875 203.488281 C 563.59375 172.800781 561.425781 170.007812 560.394531 170.417969 C 559.875 170.523438 551.609375 181.371094 542.203125 194.402344 L 524.941406 218.171875 L 500.867188 218.476562 L 476.789062 218.6875 L 481.023438 212.800781 Z M 481.0625 212.800781 " fill-opacity="1" fill-rule="nonzero"/><path fill="#062d46" d="M 662.023438 136.011719 L 662.023438 53.335938 L 704.40625 53.335938 L 704.40625 218.6875 L 662.023438 218.6875 Z M 662.023438 136.011719 " fill-opacity="1" fill-rule="nonzero"/><path fill="#298fa0" d="M 286.875 272.011719 C 286.875 271.707031 291.730469 263.226562 297.628906 253.09375 L 308.382812 234.695312 L 324.097656 234.390625 C 332.777344 234.285156 339.601562 234.496094 339.390625 235.011719 C 339.285156 235.527344 334.21875 244.113281 328.226562 254.125 L 317.378906 272.3125 L 302.191406 272.421875 C 293.714844 272.421875 286.902344 272.207031 286.902344 272.011719 Z M 286.875 272.011719 " fill-opacity="1" fill-rule="nonzero"/><path fill="#298fa0" d="M 473.101562 267.777344 C 471.550781 265.199219 454.078125 236.054688 434.144531 202.878906 C 414.300781 169.808594 397.25 142.625 396.417969 142.519531 C 395.386719 142.308594 391.457031 148.101562 384.628906 159.78125 L 374.40625 177.351562 L 359.007812 177.351562 C 350.527344 177.351562 343.714844 176.941406 343.914062 176.421875 C 344.125 176.011719 355.59375 156.476562 369.550781 133.128906 C 385.464844 106.367188 395.386719 90.757812 396.3125 90.863281 C 397.660156 91.074219 505.957031 269.746094 505.957031 271.71875 C 505.957031 272.128906 499.238281 272.445312 490.972656 272.445312 L 475.984375 272.445312 L 473.085938 267.789062 Z M 473.101562 267.777344 " fill-opacity="1" fill-rule="nonzero"/><path fill="#298fa0" d="M 298.964844 216.414062 C 298.132812 215.0625 294.824219 208.964844 291.730469 202.773438 L 285.84375 191.503906 L 319.535156 135.589844 C 338.132812 104.898438 362.527344 64.183594 373.890625 45.265625 C 391.257812 16.429688 394.871094 10.847656 396.628906 11.164062 C 398.28125 11.375 411.816406 33.070312 450.375 97.453125 L 502.042969 183.433594 L 493.882812 194.796875 C 489.4375 201.105469 485.507812 206.265625 485.097656 206.265625 C 484.6875 206.265625 483.550781 204.824219 482.609375 203.066406 C 481.777344 201.304688 463.800781 171.132812 442.714844 136.089844 C 421.628906 101.0625 402.925781 69.949219 401.164062 67.054688 C 399.40625 64.050781 397.238281 61.578125 396.417969 61.578125 C 395.492188 61.578125 388.96875 71.5 380.292969 86.167969 C 372.234375 99.609375 354.867188 128.539062 341.746094 150.445312 C 328.621094 172.242188 317.867188 190.539062 317.867188 190.960938 C 317.867188 191.476562 338.542969 191.792969 363.757812 191.792969 L 409.75 191.792969 L 417.503906 204.507812 C 421.839844 211.53125 425.359375 217.628906 425.359375 217.945312 C 425.359375 218.355469 397.25 218.675781 362.832031 218.675781 L 300.300781 218.675781 L 298.953125 216.398438 Z M 298.964844 216.414062 " fill-opacity="1" fill-rule="nonzero"/><path fill="#298fa0" d="M 721.339844 187.164062 C 721.339844 182.097656 721.445312 179.824219 721.644531 182.203125 C 721.855469 184.585938 721.855469 188.820312 721.644531 191.503906 C 721.433594 194.1875 721.339844 192.335938 721.339844 187.164062 Z M 721.339844 187.164062 " fill-opacity="1" fill-rule="nonzero"/><path fill="#298fa0" d="M 205.546875 176.316406 C 205.546875 173.222656 205.761719 171.875 205.957031 173.527344 C 206.171875 175.074219 206.171875 177.5625 205.957031 179.214844 C 205.746094 180.761719 205.546875 179.425781 205.546875 176.316406 Z M 205.546875 176.316406 " fill-opacity="1" fill-rule="nonzero"/></svg>