<svg xmlns="http://www.w3.org/2000/svg" viewBox="93 261 655 180">
  <g fill="#ffffff">
    <path d="M641.41 416.02 l0 -13.05 5.78 0.31 c6.25 0.31 8.59 1.41 11.72 5.63 1.25 1.64 1.64 3.28 1.64 7.11 0 3.83 -0.39 5.47 -1.64 7.11 -3.13 4.22 -5.47 5.31 -11.72 5.63 l-5.78 0.31 0 -13.05z m9.77 7.42 c2.58 -1.02 4.61 -5.63 3.98 -9.22 -0.63 -3.91 -2.50 -5.63 -6.09 -5.63 l-2.97 0 0 7.27 c0 4.06 0.23 7.58 0.55 7.81 0.70 0.78 2.11 0.70 4.53 -0.23z"/>
    <path d="M664.06 416.02 l0 -12.89 7.03 0 7.03 0 0 2.73 0 2.73 -4.69 0 -4.69 0 0 2.34 c0 2.34 0.08 2.34 4.30 2.34 4.22 0 4.30 0 4.30 2.27 0 2.27 -0.16 2.34 -4.06 2.58 l-4.14 0.23 -0.23 2.97 -0.23 2.89 5.08 0 5.16 0 0 2.34 0 2.34 -7.42 0 -7.42 0 0 -12.89z"/>
    <path d="M682.03 416.02 l0 -12.89 2.73 0 2.73 0 0 10.55 0 10.55 4.30 0 c4.22 0 4.30 0 4.30 2.34 l0 2.34 -7.03 0 -7.03 0 0 -12.89z"/>
    <path d="M700 423.13 c0 -3.13 -0.23 -7.89 -0.47 -10.55 l-0.55 -4.77 -3.05 0 c-2.89 0 -3.05 -0.16 -2.81 -2.11 l0.23 -2.19 9.22 -0.23 9.14 -0.23 0 2.34 c0 2.19 -0.23 2.34 -3.28 2.58 l-3.36 0.23 -0.23 10.39 -0.23 10.31 -2.27 0 -2.34 0 0 -5.78z"/>
    <path d="M711.02 427.97 c0 -0.55 1.88 -6.25 4.14 -12.73 4.06 -11.56 4.22 -11.72 6.64 -11.95 2.81 -0.31 2.11 -1.48 7.89 14.92 l3.75 10.70 -2.89 0 c-2.66 0 -3.05 -0.23 -3.67 -2.50 -0.70 -2.50 -0.86 -2.58 -5 -2.58 -4.14 0 -4.30 0.08 -5 2.58 -0.63 2.19 -1.02 2.50 -3.28 2.50 -1.64 0 -2.66 -0.39 -2.58 -0.94z m13.20 -9.53 c0 -1.17 -1.88 -5.16 -2.42 -5.16 -0.70 0 -2.27 3.28 -2.27 4.77 0 0.39 1.09 0.70 2.34 0.70 1.33 0 2.34 -0.16 2.34 -0.31z"/>
    <path d="M669.92 397.11 c-11.17 -0.94 -28.98 -5.08 -32.81 -7.58 l-1.95 -1.25 0 -12.89 0 -12.89 1.80 0 c1.02 0 4.06 0.94 6.88 2.03 6.64 2.73 19.69 5.55 28.59 6.17 9.06 0.63 14.84 -0.78 18.75 -4.69 3.05 -3.05 3.44 -7.11 1.09 -11.02 -2.34 -3.83 -5.86 -6.02 -18.20 -11.48 -16.17 -7.11 -21.33 -10.16 -27.66 -16.48 -7.66 -7.66 -9.22 -11.72 -9.30 -23.91 0 -8.59 0.08 -9.22 2.58 -14.22 2.81 -5.78 11.17 -14.30 14.84 -15.16 1.17 -0.31 2.97 -1.17 3.98 -2.03 1.02 -0.78 2.42 -1.41 3.20 -1.41 0.70 0 2.34 -0.47 3.59 -1.09 6.17 -3.13 26.56 -3.75 38.20 -1.33 3.91 0.86 9.53 2.34 12.50 3.44 l5.47 1.88 0.23 13.75 c0.16 9.38 -0.08 13.83 -0.63 13.83 -0.47 0 -2.19 -0.70 -3.91 -1.56 -1.64 -0.86 -6.09 -2.50 -9.92 -3.59 -8.91 -2.73 -22.66 -3.13 -28.52 -0.86 -5.08 1.95 -7.66 5.16 -7.66 9.53 0 5.94 3.20 8.59 18.28 14.77 27.34 11.33 35.70 18.28 38.67 32.34 1.64 8.05 0.63 18.67 -2.42 24.77 -4.30 8.52 -11.02 13.83 -22.11 17.50 -10.55 3.44 -20.94 4.53 -33.59 3.44z"/>
    <path d="M99.22 332.03 l0 -62.58 35 0.23 34.92 0.23 5.78 2.11 c18.36 6.72 27.66 20.39 27.66 40.86 0.08 18.52 -7.58 31.56 -22.50 38.67 -9.38 4.45 -12.27 4.92 -31.64 5.39 l-17.58 0.47 -0.23 18.59 -0.16 18.52 -15.63 0 -15.63 0 0 -62.50z m59.22 -2.73 c8.28 -2.50 12.34 -8.67 11.72 -17.73 -0.86 -12.81 -7.97 -16.64 -29.92 -16.09 l-9.38 0.23 -0.08 15.55 c0 8.59 0.08 16.41 0.31 17.42 0.31 1.80 0.39 1.80 11.80 1.80 8.13 0 12.73 -0.39 15.55 -1.17z"/>
    <path d="M214.06 332.03 l0 -62.50 33.83 0 c37.58 0 38.44 0.08 48.98 5.23 13.98 6.80 20.63 18.75 20.63 36.95 0 10.08 -1.17 15.31 -5.23 22.89 -2.58 5 -9.84 12.19 -14.69 14.61 l-3.05 1.56 5.55 11.17 c3.05 6.09 5.70 11.25 5.86 11.41 0.16 0.23 0.78 -0.23 1.33 -1.02 0.94 -1.25 1.64 -0.23 6.48 8.98 2.97 5.78 5.47 11.09 5.63 11.88 0.23 1.25 -1.02 1.33 -17.58 1.33 l-17.81 -0.08 -5.78 -11.48 c-3.13 -6.33 -7.66 -15.08 -10 -19.45 l-4.22 -8.05 -8.98 0 -8.91 0 0 19.53 0 19.53 -16.02 0 -16.02 0 0 -62.50z m59.61 -4.22 c7.89 -2.34 11.41 -7.27 11.48 -15.94 0 -7.81 -2.50 -11.95 -8.98 -14.69 -2.34 -1.02 -6.41 -1.41 -16.56 -1.72 l-13.52 -0.39 0 16.95 0 16.88 11.95 0 c7.97 0 13.20 -0.39 15.63 -1.09z"/>
    <path d="M453.83 390.08 c2.03 -2.89 2.89 -4.77 2.42 -5.23 -1.41 -1.41 -0.78 -2.73 5.39 -11.41 5.31 -7.42 6.33 -8.44 7.03 -7.27 0.70 1.33 0.86 1.33 2.27 -0.16 4.22 -4.45 24.53 -33.44 24.22 -34.61 -0.31 -1.17 -35.08 -50.23 -40.55 -57.27 -1.64 -2.11 -1.95 -3.05 -1.33 -3.67 0.63 -0.63 5.94 -0.94 17.42 -0.94 l16.56 0 13.13 18.36 c7.27 10.16 13.44 18.28 13.75 18.20 0.31 -0.16 6.48 -8.28 13.75 -18.20 l13.13 -17.97 17.81 -0.23 c9.77 -0.08 17.73 0 17.73 0.23 0 0.23 -6.02 8.75 -13.44 18.98 -7.34 10.16 -17.42 24.06 -22.27 30.86 l-8.91 12.27 3.44 4.53 c3.59 4.69 12.89 17.50 30.23 41.56 5.70 7.97 10.78 14.92 11.17 15.47 0.55 0.70 -2.97 0.94 -17.27 0.94 l-18.05 0 -8.36 -11.48 c-16.88 -23.20 -18.52 -25.31 -19.30 -25 -0.39 0.08 -6.64 8.28 -13.75 18.13 l-13.05 17.97 -18.20 0.23 -18.20 0.16 3.20 -4.45z"/>
    <path d="M590.63 332.03 l0 -62.50 16.02 0 16.02 0 0 62.50 0 62.50 -16.02 0 -16.02 0 0 -62.50z"/>
  </g>
  <g fill="#228ea1">
    <path d="M307.03 434.84 c0 -0.23 3.67 -6.64 8.13 -14.30 l8.13 -13.91 11.88 -0.23 c6.56 -0.08 11.72 0.08 11.56 0.47 -0.08 0.39 -3.91 6.88 -8.44 14.45 l-8.20 13.75 -11.48 0.08 c-6.41 0 -11.56 -0.16 -11.56 -0.31z"/>
    <path d="M447.81 431.64 c-1.17 -1.95 -14.38 -23.98 -29.45 -49.06 -15 -25 -27.89 -45.55 -28.52 -45.63 -0.78 -0.16 -3.75 4.22 -8.91 13.05 l-7.73 13.28 -11.64 0 c-6.41 0 -11.56 -0.31 -11.41 -0.70 0.16 -0.31 8.83 -15.08 19.38 -32.73 12.03 -20.23 19.53 -32.03 20.23 -31.95 1.02 0.16 82.89 135.23 82.89 136.72 0 0.31 -5.08 0.55 -11.33 0.55 l-11.33 0 -2.19 -3.52z"/>
    <path d="M316.17 392.81 c-0.63 -1.02 -3.13 -5.63 -5.47 -10.31 l-4.45 -8.52 25.47 -42.27 c14.06 -23.20 32.50 -53.98 41.09 -68.28 13.13 -21.80 15.86 -26.02 17.19 -25.78 1.25 0.16 11.48 16.56 40.63 65.23 l39.06 65 -6.17 8.59 c-3.36 4.77 -6.33 8.67 -6.64 8.67 -0.31 0 -1.17 -1.09 -1.88 -2.42 -0.63 -1.33 -14.22 -24.14 -30.16 -50.63 -15.94 -26.48 -30.08 -50 -31.41 -52.19 -1.33 -2.27 -2.97 -4.14 -3.59 -4.14 -0.70 0 -5.63 7.50 -12.19 18.59 -6.09 10.16 -19.22 32.03 -29.14 48.59 -9.92 16.48 -18.05 30.31 -18.05 30.63 0 0.39 15.63 0.63 34.69 0.63 l34.77 0 5.86 9.61 c3.28 5.31 5.94 9.92 5.94 10.16 0 0.31 -21.25 0.55 -47.27 0.55 l-47.27 0 -1.02 -1.72z"/>
  </g>
</svg>
